<?xml version="1.0" encoding="UTF-8" standalone="no"?>
<svg
   xmlns:dc="http://purl.org/dc/elements/1.1/"
   xmlns:cc="http://creativecommons.org/ns#"
   xmlns:rdf="http://www.w3.org/1999/02/22-rdf-syntax-ns#"
   xmlns:svg="http://www.w3.org/2000/svg"
   xmlns="http://www.w3.org/2000/svg"
   xmlns:xlink="http://www.w3.org/1999/xlink"
   xmlns:sodipodi="http://sodipodi.sourceforge.net/DTD/sodipodi-0.dtd"
   xmlns:inkscape="http://www.inkscape.org/namespaces/inkscape"
   id="svg3638"
   width="48"
   height="48"
   version="1.0"
   sodipodi:docname="slimdoc.svg"
   inkscape:version="1.0rc1 (09960d6, 2020-04-09)">
  <metadata
     id="metadata57">
    <rdf:RDF>
      <cc:Work
         rdf:about="">
        <dc:format>image/svg+xml</dc:format>
        <dc:type
           rdf:resource="http://purl.org/dc/dcmitype/StillImage" />
      </cc:Work>
    </rdf:RDF>
  </metadata>
  <sodipodi:namedview
     inkscape:document-rotation="0"
     pagecolor="#ffffff"
     bordercolor="#666666"
     borderopacity="1"
     objecttolerance="10"
     gridtolerance="10"
     guidetolerance="10"
     inkscape:pageopacity="0"
     inkscape:pageshadow="2"
     inkscape:window-width="1633"
     inkscape:window-height="1248"
     id="namedview55"
     showgrid="false"
     inkscape:zoom="21"
     inkscape:cx="24.236167"
     inkscape:cy="24"
     inkscape:window-x="0"
     inkscape:window-y="23"
     inkscape:window-maximized="0"
     inkscape:current-layer="svg3638" />
  <defs
     id="defs3640">
    <linearGradient
       id="linearGradient5060">
      <stop
         id="stop5062"
         offset="0" />
      <stop
         id="stop5064"
         style="stop-opacity:0"
         offset="1" />
    </linearGradient>
    <linearGradient
       id="linearGradient2432"
       x1="32.892"
       x2="36.358"
       y1="8.059"
       y2="5.4565"
       gradientTransform="matrix(.9977 0 0 1.0407 .1638 -1.1058)"
       gradientUnits="userSpaceOnUse">
      <stop
         id="stop8591"
         style="stop-color:#fefefe"
         offset="0" />
      <stop
         id="stop8593"
         style="stop-color:#cbcbcb"
         offset="1" />
    </linearGradient>
    <linearGradient
       id="linearGradient2436"
       x1="22.104"
       x2="22.104"
       y1="39.699"
       y2="9.2626"
       gradientTransform="matrix(.99461 0 0 1.4408 -.3759 -12.863)"
       gradientUnits="userSpaceOnUse">
      <stop
         id="stop4340"
         style="stop-color:#8e8e8e"
         offset="0" />
      <stop
         id="stop4342"
         style="stop-color:#b5b5b5"
         offset="1" />
    </linearGradient>
    <linearGradient
       id="linearGradient2439"
       x1="24"
       x2="24"
       y1="2"
       y2="46.017"
       gradientTransform="matrix(1 0 0 .97778 0 -.96667)"
       gradientUnits="userSpaceOnUse">
      <stop
         id="stop3213"
         style="stop-color:#fff"
         offset="0" />
      <stop
         id="stop3215"
         style="stop-color:#fff;stop-opacity:0"
         offset="1" />
    </linearGradient>
    <radialGradient
       id="radialGradient2442"
       cx="102"
       cy="112.3"
       r="139.56"
       gradientTransform="matrix(.3617 0 0 -.39078 .85106 47.517)"
       gradientUnits="userSpaceOnUse">
      <stop
         id="stop41"
         style="stop-color:#b7b8b9"
         offset="0" />
      <stop
         id="stop47"
         style="stop-color:#ececec"
         offset=".18851" />
      <stop
         id="stop49"
         style="stop-color:#fafafa;stop-opacity:0"
         offset=".25718" />
      <stop
         id="stop51"
         style="stop-color:#fff;stop-opacity:0"
         offset=".30111" />
      <stop
         id="stop53"
         style="stop-color:#fafafa;stop-opacity:0"
         offset=".5313" />
      <stop
         id="stop55"
         style="stop-color:#ebecec;stop-opacity:0"
         offset=".8449" />
      <stop
         id="stop57"
         style="stop-color:#e1e2e3;stop-opacity:0"
         offset="1" />
    </radialGradient>
    <linearGradient
       id="linearGradient2445"
       x1="25.132"
       x2="25.132"
       y1=".98521"
       y2="47.013"
       gradientTransform="matrix(1 0 0 .95617 -1.0065e-7 -1.9149)"
       gradientUnits="userSpaceOnUse">
      <stop
         id="stop3602"
         style="stop-color:#f4f4f4"
         offset="0" />
      <stop
         id="stop3604"
         style="stop-color:#dbdbdb"
         offset="1" />
    </linearGradient>
    <linearGradient
       id="linearGradient2447"
       x1="-51.786"
       x2="-51.786"
       y1="50.786"
       y2="2.9062"
       gradientTransform="matrix(.8075 0 0 .89483 59.41 -2.9806)"
       gradientUnits="userSpaceOnUse">
      <stop
         id="stop3106"
         style="stop-color:#aaa"
         offset="0" />
      <stop
         id="stop3108"
         style="stop-color:#c8c8c8"
         offset="1" />
    </linearGradient>
    <radialGradient
       id="radialGradient2450"
       cx="605.71"
       cy="486.65"
       r="117.14"
       gradientTransform="matrix(.02304 0 0 .0147 26.361 37.04)"
       gradientUnits="userSpaceOnUse"
       xlink:href="#linearGradient5060" />
    <radialGradient
       id="radialGradient2453"
       cx="605.71"
       cy="486.65"
       r="117.14"
       gradientTransform="matrix(-.02304 0 0 .0147 21.623 37.04)"
       gradientUnits="userSpaceOnUse"
       xlink:href="#linearGradient5060" />
    <linearGradient
       id="linearGradient2456"
       x1="302.86"
       x2="302.86"
       y1="366.65"
       y2="609.51"
       gradientTransform="matrix(.067325 0 0 .0147 -.34114 37.04)"
       gradientUnits="userSpaceOnUse">
      <stop
         id="stop5050"
         style="stop-opacity:0"
         offset="0" />
      <stop
         id="stop5056"
         offset=".5" />
      <stop
         id="stop5052"
         style="stop-opacity:0"
         offset="1" />
    </linearGradient>
    <filter
       id="filter3248"
       x="-.14846"
       y="-.16434"
       width="1.2969"
       height="1.3287"
       color-interpolation-filters="sRGB">
      <feGaussianBlur
         id="feGaussianBlur3250"
         stdDeviation="0.77391625" />
    </filter>
  </defs>
  <rect
     id="rect2879"
     x="7.7378"
     y="42.43"
     width="32.508"
     height="3.5701"
     style="fill:url(#linearGradient2456);opacity:.3" />
  <path
     id="path2881"
     d="m7.7378 42.43v3.5699c-1.1865 0.0067-2.8684-0.79982-2.8684-1.7852 0-0.98533 1.324-1.7847 2.8684-1.7847z"
     style="fill:url(#radialGradient2453);opacity:.3" />
  <path
     id="path2883"
     d="m40.246 42.43v3.5699c1.1865 0.0067 2.8684-0.79982 2.8684-1.7852 0-0.98533-1.324-1.7847-2.8684-1.7847z"
     style="fill:url(#radialGradient2450);opacity:.3" />
  <path
     id="path4160"
     d="m6.5 0.4972h24.061c1.4069 0.47465 8.9655 5.8822 10.939 9.6264v34.379h-35v-44.006z"
     style="fill:url(#linearGradient2445);stroke-linejoin:round;stroke-width:.99992;stroke:url(#linearGradient2447)" />
  <path
     id="path4191"
     d="m7.3617 44c-0.1993 0-0.3617-0.17546-0.3617-0.39078v-42.204c0-0.21571 0.1624-0.39078 0.3617-0.39078 7.4831 0.10801 15.776-0.16158 23.25 0.026895l10.283 8.866 0.10598 33.702c0 0.21532-0.16204 0.39078-0.3617 0.39078h-33.277z"
     style="fill:url(#radialGradient2442)" />
  <path
     id="path2435"
     d="m40.5 10.259v33.263h-33v-42.045h22.866"
     style="fill:none;opacity:.6;stroke-linejoin:round;stroke-width:.99992;stroke:url(#linearGradient2439)" />
  <path
     id="path12038"
     d="m28.617 0.92126c4.2825 0 2.1532 8.4832 2.1532 8.4832s10.358-1.8023 10.358 2.8187c0-2.6097-11.302-10.729-12.511-11.302z"
     style="fill-rule:evenodd;filter:url(#filter3248);opacity:.4" />
  <path
     id="path4474"
     d="m28.617 0.92126c3.1865 0 2.3358 7.6619 2.3358 7.6619s10.175-0.98105 10.175 3.64c0-1.1259 0.08591-1.9322-0.13378-2.2836-1.5783-2.5242-8.3955-8.1884-10.857-8.9308-0.18422-0.055555-0.5927-0.087535-1.5198-0.087535z"
     style="fill-rule:evenodd;fill:url(#linearGradient2432)" />
  <g
     transform="matrix(0.4,0,0,0.4,14.4,12.4)"
     id="g235">
    <rect
       y="3.5527137e-15"
       x="3.5527137e-15"
       height="48"
       width="48"
       id="rect64"
       style="fill:#000000;fill-rule:evenodd" />
    <rect
       y="1"
       x="1"
       height="22"
       width="22"
       id="rect66"
       style="fill:#ff0000;fill-rule:evenodd" />
    <rect
       y="1"
       x="24"
       height="6"
       width="6"
       id="rect68"
       style="fill:#ffff00;fill-rule:evenodd" />
    <rect
       y="8"
       x="24"
       height="15"
       width="6"
       id="rect70"
       style="fill:#ffffff;fill-rule:evenodd" />
    <rect
       y="1"
       x="42"
       height="5"
       width="5"
       id="rect72"
       style="fill:#ff0000;fill-rule:evenodd" />
    <rect
       y="1"
       x="31"
       height="10"
       width="10"
       id="rect74"
       style="fill:#ffffff;fill-rule:evenodd" />
    <rect
       y="12"
       x="31"
       height="4"
       width="10"
       id="rect76"
       style="fill:#0000ff;fill-rule:evenodd" />
    <rect
       y="7"
       x="42"
       height="9"
       width="5"
       id="rect78"
       style="fill:#ffffff;fill-rule:evenodd" />
    <rect
       y="17"
       x="31"
       height="16"
       width="16"
       id="rect80"
       style="fill:#ffff00;fill-rule:evenodd" />
    <rect
       y="34"
       x="42"
       height="13"
       width="5"
       id="rect82"
       style="fill:#ff0000;fill-rule:evenodd" />
    <rect
       y="34"
       x="31"
       height="13"
       width="10"
       id="rect84"
       style="fill:#ffffff;fill-rule:evenodd" />
    <rect
       y="41"
       x="1"
       height="6"
       width="6"
       id="rect86"
       style="fill:#ffff00;fill-rule:evenodd" />
    <rect
       y="41"
       x="8"
       height="6"
       width="22"
       id="rect88"
       style="fill:#ffffff;fill-rule:evenodd" />
    <rect
       y="24"
       x="14"
       height="16"
       width="16"
       id="rect90"
       style="fill:#0000ff;fill-rule:evenodd" />
    <rect
       y="24"
       x="1"
       height="16"
       width="12"
       id="rect92"
       style="fill:#ffffff;fill-rule:evenodd" />
  </g>
  <g
     style="font-style:normal;font-variant:normal;font-weight:normal;font-stretch:normal;font-size:8px;line-height:1.25;font-family:'Hoefler Text';-inkscape-font-specification:'Hoefler Text'"
     id="text239"
     aria-label="SLiM">
    <path
       id="path241"
       d="m 18.24019,38.01143 q 0,0.796 -0.472,1.268 -0.472,0.468 -1.276,0.468 -0.356,0 -0.852,-0.128 -0.452,-0.12 -0.74,-0.12 -0.024,-0.68 -0.096,-1.36 0,-0.064 0.12,-0.064 0.084,0 0.104,0.064 0.216,0.744 0.552,1.048 0.336,0.304 0.944,0.304 0.484,0 0.748,-0.28 0.268,-0.28 0.268,-0.784 0,-0.324 -0.232,-0.6 -0.232,-0.28 -0.988,-0.72 -0.868,-0.5 -1.136,-0.848 -0.268,-0.348 -0.268,-0.772 0,-0.652 0.48,-1.1 0.484,-0.452 1.224,-0.452 0.28,0 0.644,0.076 0.34,0.068 0.588,0.068 0.048,0.704 0.128,1.24 0,0.064 -0.104,0.064 -0.112,0 -0.124,-0.064 -0.132,-0.6 -0.4,-0.864 -0.268,-0.264 -0.74,-0.264 -0.448,0 -0.712,0.264 -0.264,0.264 -0.264,0.712 0,0.284 0.22,0.544 0.224,0.256 0.964,0.688 0.876,0.512 1.148,0.856 0.272,0.344 0.272,0.756 z" />
    <path
       id="path243"
       d="m 23.45469,38.14743 q -0.188,0.704 -0.296,1.472 -1.532,-0.048 -2.18,-0.048 -0.64,0 -2.152,0.048 -0.064,0 -0.064,-0.112 0,-0.1 0.064,-0.108 0.484,-0.056 0.656,-0.18 0.176,-0.124 0.176,-0.496 v -3.764 q 0,-0.28 -0.072,-0.392 -0.068,-0.116 -0.244,-0.18 -0.176,-0.068 -0.516,-0.108 -0.064,0 -0.064,-0.112 0,-0.112 0.064,-0.112 0.268,0 0.64,0.024 0.356,0.024 0.6,0.024 0.244,0 0.596,-0.024 0.368,-0.024 0.636,-0.024 0.064,0 0.064,0.112 0,0.112 -0.064,0.112 -0.336,0.04 -0.512,0.108 -0.176,0.064 -0.244,0.176 -0.068,0.112 -0.068,0.396 v 3.884 q 0,0.472 0.464,0.472 h 0.792 q 0.492,0 0.832,-0.26 0.34,-0.264 0.672,-0.98 0.016,-0.032 0.076,-0.032 0.052,0 0.096,0.032 0.048,0.032 0.048,0.072 z" />
    <path
       id="path245"
       d="m 25.04419,34.67143 q 0,0.168 -0.124,0.292 -0.12,0.124 -0.292,0.124 -0.172,0 -0.296,-0.124 -0.12,-0.124 -0.12,-0.292 0,-0.176 0.12,-0.296 0.12,-0.12 0.296,-0.12 0.172,0 0.292,0.12 0.124,0.12 0.124,0.296 z m 0.56,4.836 q 0,0.112 -0.064,0.112 -0.164,0 -0.42,-0.024 -0.288,-0.024 -0.484,-0.024 -0.2,0 -0.48,0.024 -0.252,0.024 -0.416,0.024 -0.064,0 -0.064,-0.112 0,-0.1 0.064,-0.108 0.34,-0.044 0.436,-0.164 0.1,-0.12 0.1,-0.512 v -1.48 q 0,-0.32 -0.084,-0.42 -0.08,-0.1 -0.356,-0.132 -0.064,0 -0.064,-0.104 0,-0.096 0.064,-0.096 0.42,-0.108 0.688,-0.228 0.268,-0.124 0.336,-0.204 0.04,-0.048 0.088,-0.048 0.112,0 0.112,0.064 -0.064,0.896 -0.064,1.392 v 1.256 q 0,0.392 0.096,0.512 0.1,0.12 0.448,0.164 0.064,0.008 0.064,0.108 z" />
    <path
       id="path247"
       d="m 33.322565,39.50743 q 0,0.112 -0.064,0.112 -0.268,0 -0.652,-0.024 -0.368,-0.024 -0.612,-0.024 -0.244,0 -0.596,0.024 -0.368,0.024 -0.636,0.024 -0.072,0 -0.072,-0.112 0,-0.1 0.064,-0.108 0.468,-0.056 0.636,-0.172 0.172,-0.116 0.172,-0.44 v -0.064 l -0.168,-3.876 -1.928,4.836 q -0.024,0.064 -0.112,0.064 -0.092,0 -0.108,-0.064 l -1.816,-4.644 -0.288,3.684 q -0.008,0.068 -0.008,0.12 0,0.268 0.184,0.384 0.184,0.116 0.656,0.168 0.056,0.008 0.056,0.112 0,0.112 -0.072,0.112 -0.208,0 -0.568,-0.024 -0.336,-0.024 -0.52,-0.024 -0.2,0 -0.544,0.024 -0.332,0.024 -0.512,0.024 -0.056,0 -0.056,-0.112 0,-0.1 0.072,-0.108 0.504,-0.06 0.696,-0.188 0.196,-0.128 0.224,-0.488 l 0.416,-3.764 q 0.004,-0.072 0.004,-0.128 0,-0.26 -0.184,-0.376 -0.184,-0.116 -0.668,-0.176 -0.056,0 -0.056,-0.112 0,-0.04 0.024,-0.076 0.024,-0.036 0.048,-0.036 0.148,0 0.42,0.024 0.232,0.024 0.34,0.024 0.14,0 0.4,-0.024 0.268,-0.024 0.416,-0.024 l 1.716,4.452 1.776,-4.452 q 0.16,0 0.42,0.024 0.236,0.024 0.372,0.024 0.168,0 0.404,-0.024 0.244,-0.024 0.42,-0.024 0.072,0 0.072,0.112 0,0.112 -0.064,0.112 -0.468,0.056 -0.64,0.172 -0.168,0.116 -0.168,0.44 v 0.068 l 0.184,3.764 q 0.012,0.28 0.084,0.392 0.076,0.112 0.256,0.18 0.18,0.064 0.516,0.104 0.064,0.008 0.064,0.108 z" />
  </g>
</svg>
